Coordinates
version=1
nRows=21
nColumns=38
inDegrees=no

Units are S.I. units (second, meters, Newtons, ...)
If the header above contains a line with 'inDegrees', this indicates whether rotational values are in degrees (yes) or radians (no).

endheader
time	pelvis_tilt	pelvis_list	pelvis_rotation	pelvis_tx	pelvis_ty	pelvis_tz	hip_flexion_r	hip_adduction_r	hip_rotation_r	knee_angle_r	ankle_angle_r	subtalar_angle_r	mtp_angle_r	hip_flexion_l	hip_adduction_l	hip_rotation_l	knee_angle_l	ankle_angle_l	subtalar_angle_l	mtp_angle_l	lumbar_extension	lumbar_bending	lumbar_rotation	arm_flex_r	arm_add_r	arm_rot_r	elbow_flex_r	pro_sup_r	wrist_flex_r	wrist_dev_r	arm_flex_l	arm_add_l	arm_rot_l	elbow_flex_l	pro_sup_l	wrist_flex_l	wrist_dev_l
1.88	-0.138143	0.0618922	-0.0192956	0.801665	1.03267	-0.477554	0.0416539	-0.144543	-0.163586	-0.749351	-0.113994	-0.00851793	0.00027473	0.491246	0.0144187	-0.181363	-0.386622	-0.00363106	0.0162463	-4.19321e-05	-0.0393842	-0.0330089	-0.00146732	-0.265355	-0.226131	0.206796	2.1015	1.57739	0.00438679	0.00160641	-0.878088	-0.553882	0.132983	2.06649	1.33856	0.00333543	-0.0204063
1.89	-0.130092	0.0637739	-0.0159678	0.80231	1.02928	-0.479266	0.0520019	-0.148088	-0.155315	-0.810251	-0.0968744	-0.00851793	0.00027473	0.480789	0.0204844	-0.177153	-0.395715	0.000939866	0.0162463	-4.19321e-05	-0.0464918	-0.0368936	-0.010546	-0.276861	-0.228668	0.204394	2.08893	1.57595	0.00438679	0.00160641	-0.859251	-0.557212	0.139817	2.06981	1.33931	0.00333543	-0.0204063
1.9	-0.120427	0.0662588	-0.0137661	0.802808	1.02506	-0.480904	0.0639904	-0.152001	-0.144639	-0.874494	-0.0765485	-0.00851793	0.00027473	0.470384	0.026819	-0.171086	-0.417178	0.0166335	0.0162463	-4.19321e-05	-0.0556422	-0.0412955	-0.0199135	-0.28752	-0.230839	0.202214	2.07274	1.56874	0.00438679	0.00160641	-0.836919	-0.561628	0.149	2.07229	1.34016	0.00333543	-0.0204063
1.91	-0.110053	0.0691866	-0.0127668	0.803084	1.02004	-0.482419	0.078334	-0.156421	-0.132936	-0.94094	-0.0542616	-0.00851793	0.00027473	0.46031	0.0331562	-0.163824	-0.448849	0.0443819	0.0162463	-4.19321e-05	-0.0659607	-0.0461849	-0.0294754	-0.297173	-0.232635	0.200341	2.05263	1.55709	0.00438679	0.00160641	-0.811214	-0.567	0.160321	2.07371	1.34103	0.00333543	-0.0204063
1.92	-0.100071	0.0723971	-0.0129324	0.803043	1.01431	-0.483758	0.0960771	-0.161395	-0.121269	-1.00848	-0.0310653	-0.00851793	0.00027473	0.451146	0.0392732	-0.15619	-0.488145	0.0835713	0.0162463	-4.19321e-05	-0.0763333	-0.0515495	-0.0392088	-0.305725	-0.234054	0.198766	2.0284	1.54284	0.00438679	0.00160641	-0.782209	-0.573126	0.173544	2.07381	1.34195	0.00333543	-0.0204063
1.93	-0.0916383	0.0757534	-0.0141231	0.802618	1.00798	-0.48488	0.118399	-0.166819	-0.110269	-1.07601	-0.00778084	-0.00851793	0.00027473	0.443661	0.0449704	-0.149064	-0.532313	0.131991	0.0162463	-4.19321e-05	-0.0855786	-0.0573795	-0.0491431	-0.313173	-0.235086	0.197403	2.00006	1.52811	0.00438679	0.00160641	-0.74996	-0.57975	0.188396	2.07234	1.34296	0.00333543	-0.0204063
1.94	-0.0857192	0.0791676	-0.0161201	0.801784	1.00125	-0.485761	0.146357	-0.172419	-0.100143	-1.14234	0.0150006	-0.00851793	0.00027473	0.438618	0.0500561	-0.143244	-0.578667	0.186205	0.0162463	-4.19321e-05	-0.0926211	-0.0636338	-0.0593314	-0.319638	-0.235734	0.196109	1.96799	1.51503	0.00438679	0.00160641	-0.714544	-0.586589	0.204559	2.06915	1.34415	0.00333543	-0.0204063
1.95	-0.0830549	0.0825928	-0.0186728	0.800523	0.994296	-0.486397	0.180532	-0.177771	-0.0907859	-1.20619	0.0368884	-0.00851793	0.00027473	0.436437	0.0543544	-0.139284	-0.62478	0.242228	0.0162463	-4.19321e-05	-0.0967829	-0.0702024	-0.0698255	-0.325381	-0.236043	0.194708	1.93302	1.50543	0.00438679	0.00160641	-0.676111	-0.593364	0.22168	2.06426	1.34559	0.00333543	-0.0204063
1.96	-0.0838891	0.085942	-0.0215296	0.798812	0.987395	-0.486798	0.220756	-0.182393	-0.081938	-1.26615	0.0576507	-0.00851793	0.00027473	0.436928	0.0577485	-0.13739	-0.668549	0.296234	0.0162463	-4.19321e-05	-0.0979416	-0.0769094	-0.0806613	-0.330818	-0.236152	0.193008	1.89653	1.50058	0.00438679	0.00160641	-0.634919	-0.59982	0.23939	2.05794	1.34737	0.00333543	-0.0204063
1.97	-0.0878265	0.0891085	-0.0244637	0.796656	0.980829	-0.486985	0.265956	-0.185838	-0.0733464	-1.32067	0.0771736	-0.00851793	0.00027473	0.439119	0.060206	-0.137399	-0.708188	0.34509	0.0162463	-4.19321e-05	-0.0966121	-0.083499	-0.0918502	-0.336484	-0.236317	0.19082	1.86039	1.50091	0.00438679	0.00160641	-0.59136	-0.605749	0.25732	2.05078	1.34965	0.00333543	-0.0204063
1.98	-0.0938503	0.0919967	-0.0272925	0.794134	0.974919	-0.487005	0.314182	-0.187795	-0.0648873	-1.3682	0.0954302	-0.00851793	0.00027473	0.441277	0.0617982	-0.13886	-0.742183	0.386602	0.0162463	-4.19321e-05	-0.0938905	-0.0896585	-0.103382	-0.342971	-0.23692	0.187985	1.82682	1.50588	0.00438679	0.00160641	-0.545972	-0.610998	0.275109	2.04365	1.35253	0.00333543	-0.0204063
1.99	-0.100532	0.0945186	-0.0298954	0.79139	0.969997	-0.48691	0.362888	-0.188148	-0.0566179	-1.40724	0.112456	-0.00851793	0.00027473	0.44116	0.0626906	-0.141185	-0.769254	0.41952	0.0162463	-4.19321e-05	-0.0912254	-0.0950664	-0.115224	-0.350836	-0.238418	0.184419	1.79805	1.51405	0.00438679	0.00160641	-0.49943	-0.615478	0.292403	2.03757	1.35612	0.00333543	-0.0204063
2	-0.106354	0.0965779	-0.0322243	0.788573	0.966353	-0.486738	0.409365	-0.186967	-0.0487687	-1.43646	0.12832	-0.00851793	0.00027473	0.436437	0.0630978	-0.143801	-0.788349	0.443374	0.0162463	-4.19321e-05	-0.0900792	-0.0994336	-0.127325	-0.360491	-0.241279	0.180143	1.77599	1.52337	0.00438679	0.00160641	-0.452524	-0.619158	0.308846	2.03358	1.36045	0.00333543	-0.0204063
2.01	-0.110056	0.0980592	-0.0343012	0.78583	0.964186	-0.486511	0.451211	-0.18444	-0.0416972	-1.45484	0.143091	-0.00851793	0.00027473	0.425141	0.0632138	-0.146268	-0.798673	0.458233	0.0162463	-4.19321e-05	-0.0915874	-0.102524	-0.139606	-0.372127	-0.24589	0.175304	1.76194	1.53164	0.00438679	0.00160641	-0.406114	-0.622073	0.324087	2.03258	1.36554	0.00333543	-0.0204063
2.02	-0.110877	0.0988378	-0.0362022	0.783309	0.963598	-0.486229	0.486692	-0.180798	-0.0358272	-1.46169	0.156803	-0.00851793	0.00027473	0.406041	0.0631479	-0.148342	-0.799756	0.464462	0.0162463	-4.19321e-05	-0.0963148	-0.104158	-0.151954	-0.385677	-0.252497	0.170159	1.75632	1.53712	0.00438679	0.00160641	-0.361076	-0.624311	0.337807	2.03518	1.37137	0.00333543	-0.0204063
2.03	-0.10866	0.0987794	-0.0380383	0.781121	0.964597	-0.485873	0.514906	-0.176254	-0.0315889	-1.4567	0.169434	-0.00851793	0.00027473	0.378822	0.0628964	-0.149983	-0.791526	0.462515	0.0162463	-4.19321e-05	-0.104169	-0.104213	-0.164213	-0.400854	-0.261164	0.165002	1.75873	1.53885	0.00438679	0.00160641	-0.318242	-0.625996	0.349768	2.04169	1.37778	0.00333543	-0.0204063
2.04	-0.103806	0.0977548	-0.0399297	0.779328	0.967095	-0.485417	0.535737	-0.170982	-0.0293709	-1.43989	0.180895	-0.00851793	0.00027473	0.344088	0.0623504	-0.151322	-0.774378	0.4528	0.0162463	-4.19321e-05	-0.114474	-0.102621	-0.176188	-0.417248	-0.271774	0.160074	1.76803	1.53685	0.00438679	0.00160641	-0.27835	-0.62726	0.359852	2.05207	1.38444	0.00333543	-0.0204063
2.05	-0.0971065	0.0956657	-0.0419699	0.777968	0.970927	-0.484844	0.549677	-0.165122	-0.0294821	-1.41151	0.191038	-0.00851793	0.00027473	0.303195	0.0613342	-0.152607	-0.749197	0.435625	0.0162463	-4.19321e-05	-0.126144	-0.0993644	-0.187668	-0.434425	-0.28406	0.155471	1.78266	1.532	0.00438679	0.00160641	-0.242013	-0.628204	0.368092	2.06606	1.39079	0.00333543	-0.0204063
2.06	-0.0895535	0.092465	-0.044198	0.777064	0.975873	-0.484147	0.557579	-0.158782	-0.0321188	-1.37202	0.199664	-0.00851793	0.00027473	0.258019	0.0596568	-0.15414	-0.717324	0.411205	0.0162463	-4.19321e-05	-0.13791	-0.0944799	-0.198456	-0.452015	-0.297637	0.151097	1.80086	1.52564	0.00438679	0.00160641	-0.209685	-0.628876	0.37466	2.08321	1.39611	0.00333543	-0.0204063
2.07	-0.0821754	0.088174	-0.0465893	0.776612	0.981682	-0.483331	0.560433	-0.152045	-0.0373272	-1.32193	0.206536	-0.00851793	0.00027473	0.210685	0.0571599	-0.156222	-0.680469	0.379729	0.0162463	-4.19321e-05	-0.148543	-0.0880652	-0.208404	-0.469751	-0.312041	0.146668	1.82099	1.5191	0.00438679	0.00160641	-0.18165	-0.629263	0.379847	2.10296	1.39966	0.00333543	-0.0204063
2.08	-0.0758759	0.082898	-0.049068	0.776588	0.988089	-0.48241	0.559183	-0.144954	-0.0449618	-1.2618	0.211394	-0.00851793	0.00027473	0.16332	0.0537532	-0.159111	-0.640577	0.341456	0.0162463	-4.19321e-05	-0.157025	-0.0802894	-0.217417	-0.487471	-0.326769	0.141768	1.84162	1.51325	0.00438679	0.00160641	-0.158008	-0.629312	0.38402	2.12474	1.40079	0.00333543	-0.0204063
